<svg width="128" height="128" viewBox="0 0 128 128" fill="none" xmlns="http://www.w3.org/2000/svg">
<path fill-rule="evenodd" clip-rule="evenodd" d="M93.1014 80.8553L76.1388 63.8922L88.2403 56.9018C89.1859 56.3554 89.7364 55.3173 89.6575 54.2282C89.5791 53.1387 88.8855 52.1902 87.8709 51.7858L33.9066 30.2597C32.8484 29.8373 31.6408 30.0861 30.8352 30.8914C30.0296 31.6973 29.7807 32.905 30.2029 33.9628L51.7259 87.9332C52.1305 88.9475 53.079 89.6414 54.1685 89.72C55.2579 89.7993 56.296 89.2485 56.8421 88.3026L63.8313 76.2011L80.7933 93.1646C81.3277 93.6995 82.053 93.9997 82.8089 93.9997C83.5649 93.9997 84.2898 93.6995 84.8242 93.1646L93.1014 84.8865C94.2147 83.7732 94.2147 81.9686 93.1014 80.8553Z" fill="#69FFC9"/>
<path fill-rule="evenodd" clip-rule="evenodd" d="M97.1014 80.8553L80.1388 63.8922L92.2403 56.9018C93.1859 56.3554 93.7364 55.3173 93.6575 54.2282C93.5791 53.1387 92.8855 52.1902 91.8709 51.7858L37.9066 30.2597C36.8484 29.8373 35.6408 30.0861 34.8352 30.8914C34.0296 31.6973 33.7807 32.905 34.2029 33.9628L55.7259 87.9332C56.1305 88.9475 57.079 89.6414 58.1685 89.72C59.2579 89.7993 60.296 89.2485 60.8421 88.3026L67.8313 76.2011L84.7933 93.1646C85.3277 93.6995 86.053 93.9997 86.8089 93.9997C87.5649 93.9997 88.2898 93.6995 88.8242 93.1646L97.1014 84.8865C98.2147 83.7732 98.2147 81.9686 97.1014 80.8553Z" fill="white"/>
<path fill-rule="evenodd" clip-rule="evenodd" d="M80.1388 63.8922L97.1014 80.8553C98.2147 81.9686 98.2147 83.7732 97.1014 84.8865L88.8242 93.1646C88.2898 93.6995 87.5649 93.9997 86.8089 93.9997C86.053 93.9997 85.3277 93.6995 84.7933 93.1646L67.8313 76.2011L60.8421 88.3026C60.296 89.2485 59.2579 89.7993 58.1685 89.72C57.079 89.6414 56.1305 88.9474 55.7259 87.9332L34.2029 33.9628C33.7807 32.905 34.0296 31.6973 34.8352 30.8914C35.6408 30.0861 36.8484 29.8373 37.9066 30.2597L91.8709 51.7858C92.8855 52.1902 93.5791 53.1387 93.6575 54.2282C93.7364 55.3173 93.186 56.3554 92.2403 56.9018L80.1388 63.8922ZM69.2365 69.5443L86.8089 87.1184L91.0547 82.8718L73.4814 65.2976C72.8546 64.6708 72.5553 63.7886 72.6709 62.9104C72.7863 62.0313 73.3041 61.2564 74.0715 60.8136L84.3014 54.9049L41.9555 38.0132L58.8449 80.3634L64.7524 70.1343C65.1953 69.3666 65.9702 68.8489 66.8492 68.7335C66.9729 68.7171 67.0975 68.7091 67.2209 68.7091C67.9717 68.7091 68.6981 69.0059 69.2365 69.5443Z" fill="#111963"/>
</svg>
