<svg width="128" height="128" viewBox="0 0 128 128" fill="none" xmlns="http://www.w3.org/2000/svg">
<path d="M48 80C65.6731 80 80 65.6731 80 48C80 30.3269 65.6731 16 48 16C30.3269 16 16 30.3269 16 48C16 65.6731 30.3269 80 48 80Z" fill="#111963"/>
<path d="M48 76C32.536 76 20 63.464 20 48C20 32.536 32.536 20 48 20C63.464 20 76 32.536 76 48C76 63.464 63.464 76 48 76Z" fill="#69FFC9"/>
<path fill-rule="evenodd" clip-rule="evenodd" d="M111.161 98.8553L94.1985 81.8922L106.3 74.9018C107.246 74.3554 107.796 73.3173 107.717 72.2282C107.639 71.1387 106.945 70.1902 105.931 69.7858L51.9663 48.2597C50.9081 47.8373 49.7005 48.0861 48.8949 48.8914C48.0893 49.6973 47.8404 50.905 48.2626 51.9628L69.7856 105.933C70.1902 106.947 71.1387 107.641 72.2282 107.72C73.3176 107.799 74.3557 107.249 74.9018 106.303L81.891 94.2011L98.853 111.165C99.3874 111.7 100.113 112 100.869 112C101.625 112 102.349 111.7 102.884 111.165L111.161 102.886C112.274 101.773 112.274 99.9686 111.161 98.8553Z" fill="white"/>
<path fill-rule="evenodd" clip-rule="evenodd" d="M94.1985 81.8922L111.161 98.8553C112.274 99.9686 112.274 101.773 111.161 102.886L102.884 111.165C102.349 111.7 101.625 112 100.869 112C100.113 112 99.3874 111.7 98.853 111.165L81.891 94.2011L74.9018 106.303C74.3557 107.249 73.3176 107.799 72.2282 107.72C71.1387 107.641 70.1902 106.947 69.7856 105.933L48.2626 51.9628C47.8404 50.905 48.0893 49.6973 48.8949 48.8914C49.7005 48.0861 50.9081 47.8373 51.9663 48.2597L105.931 69.7858C106.945 70.1902 107.639 71.1387 107.717 72.2282C107.796 73.3173 107.246 74.3554 106.3 74.9018L94.1985 81.8922ZM83.2962 87.5443L100.869 105.118L105.114 100.872L87.5411 83.2976C86.9143 82.6708 86.615 81.7886 86.7306 80.9104C86.846 80.0313 87.3637 79.2564 88.1312 78.8136L98.3611 72.9049L56.0152 56.0132L72.9046 98.3634L78.8121 88.1343C79.255 87.3666 80.0299 86.8489 80.9089 86.7335C81.0326 86.7171 81.1572 86.7091 81.2806 86.7091C82.0314 86.7091 82.7578 87.0059 83.2962 87.5443Z" fill="#111963"/>
</svg>
