<svg width="60" height="48" viewBox="0 0 60 48" fill="none" xmlns="http://www.w3.org/2000/svg">
<g clip-path="url(#clip0_1545_4564)">
<path d="M5.45458 16.2695H12.696V30.8463H5.45458C3.47966 30.8463 1.78687 29.2476 1.78687 27.1786V19.9372C1.78687 17.8683 3.47966 16.2695 5.45458 16.2695Z" fill="#C6F479"/>
<path d="M36.3951 5.454V41.5669C36.3951 42.8835 35.7368 44.106 34.6083 44.7643C33.4797 45.4227 32.0691 45.4227 30.9406 44.7643C30.7525 44.6703 30.6584 44.5763 30.5644 44.4822L12.696 30.7518V16.269L30.4703 2.53864C31.5989 1.69224 33.0095 1.50415 34.3261 2.16246C35.5487 2.82077 36.3951 4.04334 36.3951 5.454Z" fill="#8CCA3D"/>
<path d="M30.9406 16.2694V44.6707C30.7525 44.5766 30.6584 44.4826 30.5644 44.3886L12.696 30.7522V22.8525L25.0158 13.3541C26.1443 12.5077 27.555 12.3196 28.8716 12.9779C30.0942 13.6362 30.9406 14.9528 30.9406 16.2694Z" fill="#C6F479"/>
<path d="M5.45455 32.6327H12.1317L29.4357 45.8928C31.1285 47.1154 33.2915 47.3975 35.1724 46.4571C37.0533 45.5167 38.1818 43.6358 38.1818 41.5668V5.45398C38.1818 3.38501 36.9592 1.50413 35.1724 0.563694C33.3856 -0.376745 31.0345 -0.0946134 29.4357 1.12796L12.1317 14.3881H5.45455C2.44514 14.3881 0 16.8333 0 19.8427V27.0841C0 30.1875 2.44514 32.6327 5.45455 32.6327ZM31.5987 4.04332C32.163 3.66714 32.9154 3.5731 33.4796 3.85523C34.1379 4.13736 34.5141 4.79567 34.5141 5.45398V41.5668C34.5141 42.2251 34.1379 42.8834 33.4796 43.1656C32.8213 43.4477 32.163 43.3537 31.5987 42.9775L14.4828 29.8113V17.1154L31.5987 4.04332ZM3.66771 19.8427C3.66771 18.8082 4.51411 18.0559 5.45455 18.0559H10.9091V28.9649H5.45455C4.42006 28.9649 3.66771 28.1186 3.66771 27.1781V19.8427Z" fill="#3358DC"/>
<path fill-rule="evenodd" clip-rule="evenodd" d="M43.9177 18.3157C43.0409 18.8694 42.764 20.0692 43.3178 20.946C43.8715 21.869 44.1946 22.9303 44.1946 23.9917C44.1946 25.0531 43.8715 26.1145 43.3178 27.0374C42.7179 27.9603 42.9947 29.1602 43.9177 29.7139C44.7945 30.2677 45.9943 29.9908 46.548 29.114C47.5171 27.5912 48.0247 25.8376 48.0247 24.0379C48.0247 22.2381 47.5171 20.4846 46.548 18.9617C45.9943 17.9926 44.7945 17.7158 43.9177 18.3157Z" fill="#3358DC"/>
<path fill-rule="evenodd" clip-rule="evenodd" d="M52.9647 13.0535C52.3362 12.9392 51.7076 12.9963 51.1933 13.3392C50.0505 14.0821 49.7076 15.5106 50.3933 16.6535C51.8219 18.9392 52.5647 21.5678 52.5647 24.1963C52.5647 26.8249 51.8219 29.5106 50.3933 31.7392C49.7076 32.8249 50.0505 34.3106 51.1362 34.9963C52.2219 35.6821 53.7076 35.3392 54.3933 34.2535C56.279 31.2249 57.3076 27.7392 57.3076 24.1392C57.3076 20.5392 56.279 17.0535 54.3933 14.0249C54.1076 13.5678 53.5933 13.2249 52.9647 13.0535Z" fill="#3358DC"/>
</g>
<defs>
<clipPath id="clip0_1545_4564">
<rect width="60" height="47.0219" fill="white"/>
</clipPath>
</defs>
</svg>
