<svg width="46" height="54" viewBox="0 0 46 54" fill="none" xmlns="http://www.w3.org/2000/svg">
<path fill-rule="evenodd" clip-rule="evenodd" d="M45.3437 14.6559V48.9268C45.3437 51.2184 43.5208 53.0413 41.2291 53.0413H4.82283C2.53117 53.0413 0.708252 51.2184 0.708252 48.9268V5.07259C0.708252 2.78093 2.53117 0.958008 4.82283 0.958008H31.5937L45.3437 14.6559Z" fill="#CB0606"/>
<path fill-rule="evenodd" clip-rule="evenodd" d="M45.3437 13.8747V15.5934H34.0937C31.7499 15.5934 30.7083 13.7184 30.7083 11.3747V0.958008H32.427L45.3437 13.8747Z" fill="#FB8D8D"/>
<path d="M8.57275 21.5833C8.62484 21.5833 8.67692 21.5833 8.729 21.5833C8.78108 21.5833 8.88525 21.5833 8.98942 21.5833C9.09358 21.5833 9.19775 21.5833 9.30192 21.5833C9.40608 21.5833 9.51025 21.5833 9.71859 21.5833C9.87484 21.5833 10.0311 21.5833 10.0832 21.5833C12.0103 21.5312 13.3644 21.5312 14.0415 21.5312C14.979 21.5312 15.7603 21.6875 16.3332 21.9479C16.9061 22.2083 17.3748 22.625 17.6873 23.25C18.0519 23.9792 18.2082 24.8646 18.2082 25.9063V26.4792C18.2082 27.5729 18.104 28.3542 17.8957 28.7188C17.5832 29.4479 17.1144 29.9688 16.5415 30.2813C15.9165 30.5938 15.1353 30.75 14.0936 30.75C14.0415 30.75 13.9894 30.75 13.8853 30.75C13.6248 30.75 13.2603 30.75 12.7394 30.6979C12.1665 30.6458 11.8019 30.5938 11.8019 30.5938V34.3437H8.62484V21.5833H8.57275ZM13.5728 28.4062H13.6248C14.0415 28.4062 14.3019 28.3542 14.4582 28.3021C14.6144 28.25 14.7707 28.1458 14.8748 28.0417C15.0311 27.8854 15.1353 27.7292 15.1873 27.5208C15.2394 27.3646 15.2915 27.0521 15.2915 26.7396V25.5938C15.2915 24.9167 15.1873 24.5 14.979 24.2396C14.8748 24.1354 14.6665 24.0312 14.5103 23.9792C14.3019 23.9271 14.1457 23.875 13.9894 23.875C13.8332 23.875 13.6248 23.875 13.4165 23.875C12.9998 23.875 12.479 23.875 11.8019 23.9271V28.3021C12.5311 28.3542 13.1561 28.4062 13.5728 28.4062Z" fill="#FFFEF9"/>
<path d="M19.354 21.583C20.2394 21.583 20.9686 21.583 21.5415 21.583C21.7498 21.583 22.3228 21.583 23.2082 21.583C23.4165 21.583 23.5728 21.583 23.729 21.583C23.8853 21.583 23.9894 21.583 24.0936 21.583C24.1978 21.583 24.1978 21.583 24.2498 21.583C26.8019 21.583 28.4686 22.3643 29.2498 23.9268C29.7186 24.8122 29.979 26.0622 29.979 27.6247V28.458C29.979 29.9163 29.8228 30.958 29.5623 31.583C28.8332 33.5101 27.0623 34.4476 24.3019 34.4476C22.9998 34.4476 21.854 34.4476 20.8123 34.3955C20.7603 34.3955 20.6561 34.3955 20.4478 34.3955C20.2915 34.3955 20.1353 34.3955 20.0832 34.3955C19.979 34.3955 19.9269 34.3955 19.8228 34.3955C19.7186 34.3955 19.6144 34.3955 19.5623 34.3955C19.5103 34.3955 19.4582 34.3955 19.4061 34.3955V21.583H19.354ZM23.6769 31.8434H23.9894C24.5623 31.8434 25.0311 31.7913 25.3957 31.6872C25.7603 31.583 26.0207 31.4268 26.229 31.1663C26.4373 30.9059 26.5936 30.6455 26.6457 30.333C26.6978 30.0205 26.7498 29.5518 26.7498 29.0309V27.0518C26.7498 25.7497 26.5415 24.9163 26.1769 24.5518C25.8123 24.1872 25.0832 23.9788 23.8853 23.9788C23.5207 23.9788 23.0519 24.0309 22.5311 24.083V31.7913C22.8436 31.8434 23.2082 31.8434 23.6769 31.8434Z" fill="#FFFEF9"/>
<path d="M31.1248 21.583H38.5207V24.0309H34.354V26.7393H37.6873L37.4269 29.0309H34.354V34.2913H31.0728V21.583H31.1248Z" fill="#FFFEF9"/>
</svg>
