<svg width="76" height="64" viewBox="0 0 76 64" fill="none" xmlns="http://www.w3.org/2000/svg">
<g filter="url(#filter0_d_3537_2011)">
<path d="M68.8662 57.9725H7.13391C6.03155 57.9725 4.9292 56.8701 4.9292 55.7677V4.23231C4.9292 3.12995 6.03155 2.02759 7.13391 2.02759H68.8662C69.9686 2.02759 71.0709 3.12995 71.0709 4.23231V55.7677C71.0709 57.1457 70.2441 57.9725 68.8662 57.9725Z" fill="#FFBB05"/>
</g>
<g filter="url(#filter1_d_3537_2011)">
<path d="M71.7323 15.2559H4.26772C3.13387 15.2559 2 14.1536 2 13.0512V4.23231C2 3.12995 3.13387 2.02759 4.26772 2.02759H71.7323C72.8661 2.02759 74 3.12995 74 4.23231V13.0512C74 14.1536 72.8661 15.2559 71.7323 15.2559Z" fill="#FFBB05"/>
</g>
<path d="M71.3465 26.0039H4.9292V43.9173H71.3465V26.0039Z" fill="white"/>
<path d="M71.3465 41.437H4.9292V42.815H71.3465V41.437Z" fill="#FFDD82"/>
<path d="M13.7478 36.4763C14.2989 36.7519 15.1257 37.0275 16.2281 37.0275C17.3304 37.0275 17.8816 36.4763 17.8816 35.9251C17.8816 35.3739 17.3304 35.0983 16.2281 34.5472C14.5745 33.996 13.4722 33.1692 13.4722 31.7913C13.4722 30.1377 14.8501 28.7598 17.0548 28.7598C18.1572 28.7598 18.984 29.0354 19.5352 29.3109L19.2596 30.9645C18.984 30.6889 18.1572 30.4133 17.3304 30.4133C16.5037 30.4133 15.9525 30.9645 15.9525 31.2401C15.9525 31.7913 16.5037 32.0669 17.8816 32.618C19.5352 33.1692 20.3619 34.2716 20.3619 35.3739C20.3619 37.0275 18.984 38.4054 16.5037 38.4054C15.4013 38.4054 14.2989 38.1298 13.7478 37.8543V36.4763Z" fill="black"/>
<path d="M29.4566 38.4054C29.181 38.681 28.0786 38.9566 26.9763 38.9566C23.6692 38.9566 22.0156 36.7519 22.0156 33.996C22.0156 30.6889 24.4959 28.7598 27.2518 28.7598C28.3542 28.7598 29.181 29.0354 29.7322 29.3109L29.181 30.9645C28.6298 30.6889 28.0786 30.6889 27.2518 30.6889C25.5983 30.6889 24.2204 31.7913 24.2204 33.996C24.2204 35.9251 25.3227 37.0275 27.2518 37.0275C27.803 37.0275 28.6298 36.7519 29.181 36.7519L29.4566 38.4054Z" fill="black"/>
<path d="M39.9287 33.7206C39.9287 37.0276 37.9996 38.9568 35.2436 38.9568C32.4877 38.9568 30.5586 36.7521 30.5586 33.9961C30.5586 30.9646 32.4877 29.0355 35.2436 29.0355C38.2751 28.7599 39.9287 30.9646 39.9287 33.7206ZM33.0389 33.7206C33.0389 35.6497 33.8657 37.0276 35.5192 37.0276C36.8972 37.0276 37.7239 35.6497 37.7239 33.7206C37.7239 32.067 36.8972 30.4135 35.2436 30.4135C33.8657 30.6891 33.0389 32.067 33.0389 33.7206Z" fill="black"/>
<path d="M42.1331 29.0354C42.9598 29.0354 43.7866 28.7598 45.1645 28.7598C46.5425 28.7598 47.6449 29.0354 48.196 29.5865C48.7472 30.1377 49.0228 30.6889 49.0228 31.5157C49.0228 32.618 48.196 33.7204 47.3693 33.996C47.9204 34.2716 48.4716 34.8228 48.7472 35.9251C49.0228 37.0275 49.2984 38.4054 49.574 38.681H47.3693C47.0937 38.4054 47.0937 37.5787 46.8181 36.4763C46.5425 35.3739 46.2669 34.8228 45.1645 34.8228H44.6134V38.681H42.4086V29.0354H42.1331ZM44.3378 33.1692H45.1645C46.2669 33.1692 46.8181 32.618 46.8181 31.7913C46.8181 30.9645 46.2669 30.4133 45.1645 30.4133C44.6134 30.4133 44.3378 30.4133 44.0622 30.4133V33.1692H44.3378Z" fill="black"/>
<path d="M59.4955 35.0979C59.4955 33.9956 59.4955 32.6176 59.4955 31.2397C59.2199 32.342 58.6687 33.72 58.3931 35.0979L57.2908 38.9562H55.6372L54.5349 35.0979C54.2593 33.9956 53.9837 32.6176 53.7081 31.2397C53.7081 32.6176 53.7081 33.9956 53.4325 35.3735L53.1569 38.9562H51.2278L51.779 29.3105H54.8105L55.6372 32.6176C55.9128 33.72 56.1884 34.8224 56.464 36.2003C56.7396 35.0979 57.0152 33.72 57.2908 32.6176L58.3931 29.3105H61.149L61.7002 38.9562H59.4955V35.0979Z" fill="black"/>
<defs>
<filter id="filter0_d_3537_2011" x="0.929199" y="0.0275879" width="74.1418" height="63.9448" filterUnits="userSpaceOnUse" color-interpolation-filters="sRGB">
<feFlood flood-opacity="0" result="BackgroundImageFix"/>
<feColorMatrix in="SourceAlpha" type="matrix" values="0 0 0 0 0 0 0 0 0 0 0 0 0 0 0 0 0 0 127 0" result="hardAlpha"/>
<feOffset dy="2"/>
<feGaussianBlur stdDeviation="2"/>
<feComposite in2="hardAlpha" operator="out"/>
<feColorMatrix type="matrix" values="0 0 0 0 0 0 0 0 0 0 0 0 0 0 0 0 0 0 0.25 0"/>
<feBlend mode="normal" in2="BackgroundImageFix" result="effect1_dropShadow_3537_2011"/>
<feBlend mode="normal" in="SourceGraphic" in2="effect1_dropShadow_3537_2011" result="shape"/>
</filter>
<filter id="filter1_d_3537_2011" x="0" y="2.02759" width="76" height="17.2283" filterUnits="userSpaceOnUse" color-interpolation-filters="sRGB">
<feFlood flood-opacity="0" result="BackgroundImageFix"/>
<feColorMatrix in="SourceAlpha" type="matrix" values="0 0 0 0 0 0 0 0 0 0 0 0 0 0 0 0 0 0 127 0" result="hardAlpha"/>
<feOffset dy="2"/>
<feGaussianBlur stdDeviation="1"/>
<feComposite in2="hardAlpha" operator="out"/>
<feColorMatrix type="matrix" values="0 0 0 0 0 0 0 0 0 0 0 0 0 0 0 0 0 0 0.25 0"/>
<feBlend mode="normal" in2="BackgroundImageFix" result="effect1_dropShadow_3537_2011"/>
<feBlend mode="normal" in="SourceGraphic" in2="effect1_dropShadow_3537_2011" result="shape"/>
</filter>
</defs>
</svg>
