<svg width="128" height="128" viewBox="0 0 128 128" fill="none" xmlns="http://www.w3.org/2000/svg">
<path d="M16 24V32H104V96H48V104H120V96H112V24H16ZM32.0078 36C23.2131 36 16 43.2107 16 52C16 60.7947 23.2163 68 32.0078 68C40.7885 68 48 60.7947 48 52C48 43.2107 40.7918 36 32.0078 36ZM56 40V48H76V40H56ZM84 40V48H96V40H84ZM32.0078 44C36.4639 44 40 47.5333 40 52C40 56.4773 36.4671 60 32.0078 60C27.5273 60 24 56.4773 24 52C24 47.5333 27.5305 44 32.0078 44ZM56 56V64H96V56H56ZM16 72V104H24V80H36V104H44V82.6328L52.2578 87C54.595 88.2406 57.4063 88.2357 59.7422 87V87.0078L73.8672 79.5391L70.1328 72.4609L56.0078 79.9297L43.625 73.3906C41.9003 72.4802 39.974 72 38.0156 72H16Z" fill="#3429B4"/>
</svg>
