<svg width="60" height="45" viewBox="0 0 60 45" fill="none" xmlns="http://www.w3.org/2000/svg">
<g clip-path="url(#clip0_906_4047)">
<path d="M4.80418 0H55.1958C57.859 0 60 2.14099 60 4.80418V39.5822C60 42.2454 57.859 44.3864 55.1958 44.3864H4.80418C2.14099 44.3864 0 42.2454 0 39.5822V4.80418C0 2.14099 2.14099 0 4.80418 0Z" fill="#E1584C"/>
<path d="M60 39.5822V4.80418C60 2.14099 57.859 0 55.1958 0H29.9739V44.3864H55.1436C57.8068 44.3864 60 42.2454 60 39.5822Z" fill="#E56B62"/>
<path d="M40.1567 20.9401L26.0052 12.115C24.9086 11.4362 23.812 12.0106 23.812 13.3683V31.0184C23.812 32.4283 24.9086 33.0027 26.0052 32.2717L40.2089 23.6033C41.5666 22.7678 41.0444 21.4623 40.1567 20.9401Z" fill="white"/>
<path d="M8.25072 3.91602H2.50659V9.50348H8.25072V3.91602Z" fill="white"/>
<path d="M8.25072 13.9941H2.50659V19.5816H8.25072V13.9941Z" fill="white"/>
<path d="M8.25072 24.125H2.50659V29.7125H8.25072V24.125Z" fill="white"/>
<path d="M8.25072 34.2031H2.50659V39.7906H8.25072V34.2031Z" fill="white"/>
<path d="M57.3369 3.91602H51.5928V9.50348H57.3369V3.91602Z" fill="white"/>
<path d="M57.3369 13.9941H51.5928V19.5816H57.3369V13.9941Z" fill="white"/>
<path d="M57.3369 24.125H51.5928V29.7125H57.3369V24.125Z" fill="white"/>
<path d="M57.3369 34.2031H51.5928V39.7906H57.3369V34.2031Z" fill="white"/>
</g>
<defs>
<clipPath id="clip0_906_4047">
<rect width="60" height="44.3864" fill="white"/>
</clipPath>
</defs>
</svg>
