<svg width="128" height="128" viewBox="0 0 128 128" fill="none" xmlns="http://www.w3.org/2000/svg">
<path d="M40 70.964V84C40 86.208 41.792 88 44 88H49.18L52.016 116.4C52.224 118.444 53.944 120 56 120H72C74.056 120 75.776 118.444 75.98 116.4L78.816 88H84C86.208 88 88 86.208 88 84V70.964C88 62.712 81.288 56 73.036 56H64H54.964C46.712 56 40 62.712 40 70.964ZM73.036 64C76.876 64 80 67.124 80 70.964V80H75.2C73.144 80 71.424 81.556 71.22 83.6L68.38 112H59.62L56.784 83.6C56.576 81.556 54.856 80 52.8 80H48V70.964C48 67.124 51.124 64 54.964 64H73.036Z" fill="#3429B4"/>
<path d="M48 40C48 48.824 55.176 56 64 56C72.824 56 80 48.824 80 40V35.732C80 29.264 74.736 24 68.268 24H59.732C53.264 24 48 29.264 48 35.732V40ZM56 35.732C56 33.672 57.672 32 59.732 32H68.268C70.328 32 72 33.672 72 35.732V40C72 44.412 68.412 48 64 48C59.588 48 56 44.412 56 40V35.732Z" fill="#3429B4"/>
<path d="M105.036 40H96H86.964C84.756 40 82.964 41.792 82.964 44C82.964 46.208 84.756 48 86.964 48H105.036C108.876 48 112 51.124 112 54.964V64H107.2C105.144 64 103.424 65.556 103.22 67.6L100.38 96H88C85.792 96 84 97.792 84 100C84 102.208 85.792 104 88 104H104C106.056 104 107.776 102.444 107.98 100.4L110.816 72H116C118.208 72 120 70.208 120 68V54.964C120 46.712 113.288 40 105.036 40Z" fill="#3429B4"/>
<path d="M12 72H17.18L20.016 100.4C20.224 102.444 21.944 104 24 104H40C42.208 104 44 102.208 44 100C44 97.792 42.208 96 40 96H27.62L24.784 67.6C24.576 65.556 22.856 64 20.8 64H16V54.964C16 51.124 19.124 48 22.964 48H41.036C43.244 48 45.036 46.208 45.036 44C45.036 41.792 43.244 40 41.036 40H32H22.964C14.712 40 8 46.712 8 54.964V68C8 70.208 9.792 72 12 72Z" fill="#3429B4"/>
<path d="M112 24V19.732C112 13.264 106.736 8 100.268 8H91.732C85.264 8 80 13.264 80 19.732V24C80 32.824 87.176 40 96 40C104.824 40 112 32.824 112 24ZM104 24C104 28.412 100.412 32 96 32C91.588 32 88 28.412 88 24V19.732C88 17.672 89.672 16 91.732 16H100.268C102.328 16 104 17.672 104 19.732V24Z" fill="#3429B4"/>
<path d="M48 24V19.732C48 13.264 42.736 8 36.268 8H27.732C21.264 8 16 13.264 16 19.732V24C16 32.824 23.176 40 32 40C40.824 40 48 32.824 48 24ZM40 24C40 28.412 36.412 32 32 32C27.588 32 24 28.412 24 24V19.732C24 17.672 25.672 16 27.732 16H36.268C38.328 16 40 17.672 40 19.732V24Z" fill="#3429B4"/>
</svg>
