<svg width="62" height="56" viewBox="0 0 62 56" fill="none" xmlns="http://www.w3.org/2000/svg">
<path d="M33.9167 55.5521C49.1251 55.5521 61.4688 43.2083 61.4688 28H6.41675C6.41675 43.2604 18.7605 55.5521 33.9167 55.5521Z" fill="#C8421D"/>
<path d="M33.9167 0.448242V28.0003H61.4688C61.4688 12.792 49.1772 0.448242 33.9167 0.448242Z" fill="#FF8F6A"/>
<path d="M6.46875 28.0003H34.0208V0.448242C18.8125 0.448242 6.46875 12.792 6.46875 28.0003Z" fill="#ED6B47"/>
<path d="M28.7083 43.2611H3.55208C1.88542 43.2611 0.53125 41.9069 0.53125 40.2402V15.4486C0.53125 13.7819 1.88542 12.4277 3.55208 12.4277H28.7083C30.375 12.4277 31.7292 13.7819 31.7292 15.4486V40.2402C31.7812 41.9069 30.375 43.2611 28.7083 43.2611Z" fill="#C8421D"/>
<path d="M14.0208 30.0313V36.5417H10.375V18.625H17.6146C19.6979 18.625 21.3646 19.1458 22.5625 20.1875C23.7604 21.2292 24.3854 22.5833 24.3854 24.3542C24.3854 26.0729 23.7604 27.4271 22.5625 28.4688C21.3646 29.5104 19.6979 30.0313 17.6146 30.0313H14.0208ZM14.0208 27.2708H17.6146C18.6042 27.2708 19.4375 27.0104 19.9583 26.4896C20.4792 25.9167 20.7396 25.2396 20.7396 24.4062C20.7396 23.5729 20.4792 22.8438 19.9583 22.2708C19.4375 21.6979 18.6563 21.4375 17.6146 21.4375H14.0208V27.2708Z" fill="white"/>
<path opacity="0.2" d="M31.6771 15.1875C31.6771 15.2917 31.6771 15.3958 31.6771 15.4479V40.2396C31.6771 41.9063 30.3229 43.2604 28.6562 43.2604H11.1562L12.9792 45.9688H31.1562C32.8229 45.9688 34.1771 44.6146 34.1771 42.9479V18.1562C34.2292 16.6458 33.1354 15.3958 31.6771 15.1875Z" fill="black"/>
</svg>
