<svg width="60" height="53" viewBox="0 0 60 53" fill="none" xmlns="http://www.w3.org/2000/svg">
<g clip-path="url(#clip0_906_4017)">
<path d="M1.95911 12.1841L47.2652 0.061642C48.6734 -0.305705 50.204 0.551438 50.5714 1.9596L59.5101 35.2045C59.8775 36.6127 59.0203 38.0821 57.6122 38.4494L12.3061 50.5718C10.8979 50.9392 9.36728 50.0821 8.99993 48.6739L0.0611537 15.429C-0.306193 14.0208 0.55095 12.5514 1.95911 12.1841Z" fill="#E2E4E5"/>
<path d="M5.75506 14.8778L45.3673 4.28592C46.4693 3.97979 47.5714 4.65326 47.8775 5.7553L55.2857 33.3063C55.5918 34.4084 54.9183 35.5104 53.8163 35.8165L14.2653 46.3471C13.1632 46.6533 12.0612 45.9798 11.7551 44.8778L4.28567 17.388C3.97955 16.2859 4.65302 15.1839 5.75506 14.8778Z" fill="#218CB1"/>
<path d="M10.1631 11.7559H57.306C58.8366 11.7559 59.9999 12.9803 59.9999 14.4497V49.4089C59.9999 50.9395 58.7754 52.1028 57.306 52.1028H10.1631C8.6325 52.1028 7.46924 50.8783 7.46924 49.4089V14.3885C7.53046 12.9191 8.69373 11.7559 10.1631 11.7559Z" fill="#F2F1F1"/>
<path d="M13.3468 15.4902H54.306C55.408 15.4902 56.3876 16.4086 56.3876 17.5719V46.2862C56.3876 47.3882 55.4692 48.3678 54.306 48.3678H13.3468C12.2447 48.3678 11.2651 47.4494 11.2651 46.2862V17.5719C11.2651 16.4086 12.1223 15.4902 13.3468 15.4902Z" fill="#B3E2F4"/>
<path d="M11.2651 17.5721V27.6129C11.7549 27.6742 12.1835 27.7354 12.6733 27.7354C18.6121 27.7354 23.4488 22.8987 23.4488 16.9599C23.4488 16.4701 23.3876 16.0415 23.3264 15.5517H13.3468C12.1223 15.4905 11.2651 16.4089 11.2651 17.5721Z" fill="#EDC55D"/>
<path d="M14.6937 38.4492C13.5304 38.4492 12.3672 38.5717 11.2651 38.6941V46.2247C11.2651 47.3268 12.1835 48.3064 13.3468 48.3064H28.959C29.0815 47.8778 29.0815 47.5104 29.0815 47.0819C29.0815 42.3064 22.6529 38.4492 14.6937 38.4492Z" fill="#36A364"/>
<path d="M47.3877 34.2246C34.5306 34.2246 24.0612 40.5307 23.9387 48.3062H54.2448C55.3469 48.3062 56.3265 47.3879 56.3265 46.2246V35.3266C53.5714 34.6532 50.5102 34.2246 47.3877 34.2246Z" fill="#56B96D"/>
</g>
<defs>
<clipPath id="clip0_906_4017">
<rect width="60" height="52.0408" fill="white"/>
</clipPath>
</defs>
</svg>
