<svg width="128" height="128" viewBox="0 0 128 128" fill="none" xmlns="http://www.w3.org/2000/svg">
<path d="M66.6667 69.3333H61.3333C59.9188 69.3333 58.5623 69.8952 57.5621 70.8954C56.5619 71.8956 56 73.2522 56 74.6667C56 76.0812 56.5619 77.4377 57.5621 78.4379C58.5623 79.4381 59.9188 80 61.3333 80H66.6667C68.0812 80 69.4377 79.4381 70.4379 78.4379C71.4381 77.4377 72 76.0812 72 74.6667C72 73.2522 71.4381 71.8956 70.4379 70.8954C69.4377 69.8952 68.0812 69.3333 66.6667 69.3333Z" fill="#3429B4"/>
<path d="M66.6667 48H61.3333C59.9188 48 58.5623 48.5619 57.5621 49.5621C56.5619 50.5623 56 51.9188 56 53.3333C56 54.7478 56.5619 56.1044 57.5621 57.1046C58.5623 58.1048 59.9188 58.6667 61.3333 58.6667H66.6667C68.0812 58.6667 69.4377 58.1048 70.4379 57.1046C71.4381 56.1044 72 54.7478 72 53.3333C72 51.9188 71.4381 50.5623 70.4379 49.5621C69.4377 48.5619 68.0812 48 66.6667 48Z" fill="#3429B4"/>
<path d="M66.6667 26.6667H61.3333C59.9188 26.6667 58.5623 27.2286 57.5621 28.2288C56.5619 29.229 56 30.5855 56 32C56 33.4145 56.5619 34.7711 57.5621 35.7713C58.5623 36.7714 59.9188 37.3334 61.3333 37.3334H66.6667C68.0812 37.3334 69.4377 36.7714 70.4379 35.7713C71.4381 34.7711 72 33.4145 72 32C72 30.5855 71.4381 29.229 70.4379 28.2288C69.4377 27.2286 68.0812 26.6667 66.6667 26.6667Z" fill="#3429B4"/>
<path d="M45.3333 69.3333H40C38.5855 69.3333 37.229 69.8952 36.2288 70.8954C35.2286 71.8956 34.6667 73.2522 34.6667 74.6667C34.6667 76.0812 35.2286 77.4377 36.2288 78.4379C37.229 79.4381 38.5855 80 40 80H45.3333C46.7478 80 48.1044 79.4381 49.1046 78.4379C50.1048 77.4377 50.6667 76.0812 50.6667 74.6667C50.6667 73.2522 50.1048 71.8956 49.1046 70.8954C48.1044 69.8952 46.7478 69.3333 45.3333 69.3333Z" fill="#3429B4"/>
<path d="M45.3333 48H40C38.5855 48 37.229 48.5619 36.2288 49.5621C35.2286 50.5623 34.6667 51.9188 34.6667 53.3333C34.6667 54.7478 35.2286 56.1044 36.2288 57.1046C37.229 58.1048 38.5855 58.6667 40 58.6667H45.3333C46.7478 58.6667 48.1044 58.1048 49.1046 57.1046C50.1048 56.1044 50.6667 54.7478 50.6667 53.3333C50.6667 51.9188 50.1048 50.5623 49.1046 49.5621C48.1044 48.5619 46.7478 48 45.3333 48Z" fill="#3429B4"/>
<path d="M45.3333 26.6667H40C38.5855 26.6667 37.229 27.2286 36.2288 28.2288C35.2286 29.229 34.6667 30.5855 34.6667 32C34.6667 33.4145 35.2286 34.7711 36.2288 35.7713C37.229 36.7714 38.5855 37.3334 40 37.3334H45.3333C46.7478 37.3334 48.1044 36.7714 49.1046 35.7713C50.1048 34.7711 50.6667 33.4145 50.6667 32C50.6667 30.5855 50.1048 29.229 49.1046 28.2288C48.1044 27.2286 46.7478 26.6667 45.3333 26.6667Z" fill="#3429B4"/>
<path d="M88 69.3333H82.6667C81.2522 69.3333 79.8956 69.8952 78.8954 70.8954C77.8952 71.8956 77.3333 73.2522 77.3333 74.6667C77.3333 76.0812 77.8952 77.4377 78.8954 78.4379C79.8956 79.4381 81.2522 80 82.6667 80H88C89.4145 80 90.771 79.4381 91.7712 78.4379C92.7714 77.4377 93.3333 76.0812 93.3333 74.6667C93.3333 73.2522 92.7714 71.8956 91.7712 70.8954C90.771 69.8952 89.4145 69.3333 88 69.3333Z" fill="#3429B4"/>
<path d="M88 48H82.6667C81.2522 48 79.8956 48.5619 78.8954 49.5621C77.8952 50.5623 77.3333 51.9188 77.3333 53.3333C77.3333 54.7478 77.8952 56.1044 78.8954 57.1046C79.8956 58.1048 81.2522 58.6667 82.6667 58.6667H88C89.4145 58.6667 90.771 58.1048 91.7712 57.1046C92.7714 56.1044 93.3333 54.7478 93.3333 53.3333C93.3333 51.9188 92.7714 50.5623 91.7712 49.5621C90.771 48.5619 89.4145 48 88 48Z" fill="#3429B4"/>
<path d="M88 26.6667H82.6667C81.2522 26.6667 79.8956 27.2286 78.8954 28.2288C77.8952 29.229 77.3333 30.5855 77.3333 32C77.3333 33.4145 77.8952 34.7711 78.8954 35.7713C79.8956 36.7714 81.2522 37.3334 82.6667 37.3334H88C89.4145 37.3334 90.771 36.7714 91.7712 35.7713C92.7714 34.7711 93.3333 33.4145 93.3333 32C93.3333 30.5855 92.7714 29.229 91.7712 28.2288C90.771 27.2286 89.4145 26.6667 88 26.6667Z" fill="#3429B4"/>
<path d="M117.333 112H112V10.6667C112 9.25219 111.438 7.89563 110.438 6.89544C109.438 5.89525 108.081 5.33334 106.667 5.33334H21.3333C19.9188 5.33334 18.5623 5.89525 17.5621 6.89544C16.5619 7.89563 16 9.25219 16 10.6667V112H10.6667C9.25218 112 7.89562 112.562 6.89543 113.562C5.89524 114.562 5.33333 115.919 5.33333 117.333C5.33333 118.748 5.89524 120.104 6.89543 121.105C7.89562 122.105 9.25218 122.667 10.6667 122.667H117.333C118.748 122.667 120.104 122.105 121.105 121.105C122.105 120.104 122.667 118.748 122.667 117.333C122.667 115.919 122.105 114.562 121.105 113.562C120.104 112.562 118.748 112 117.333 112ZM53.3333 112V101.333H74.6667V112H53.3333ZM85.3333 112V96C85.3333 94.5855 84.7714 93.229 83.7712 92.2288C82.771 91.2286 81.4145 90.6667 80 90.6667H48C46.5855 90.6667 45.229 91.2286 44.2288 92.2288C43.2286 93.229 42.6667 94.5855 42.6667 96V112H26.6667V16H101.333V112H85.3333Z" fill="#3429B4"/>
</svg>
