<svg width="50" height="100" viewBox="0 0 50 100" fill="none" xmlns="http://www.w3.org/2000/svg">
<g clip-path="url(#clip0_1541_5561)">
<path d="M3.09998 31.1C5.39998 31.1 7.69998 31.3 9.99998 31.4C12.3 31.5 14.7 31.4 16.8 32.4C16.9 32.4 16.9 32.5 17 32.5C17 32.5 17.1 32.5 17.1 32.6C17.3 32.7 17.4 32.8 17.4 33C17.5 33.1 17.5 33.2 17.5 33.4C20 53 13.8 75.2 10.6 94.8C19.6 94.4 28.7 94.4 37.7 94.1C34.9 74.3 29.3 53.4 31 33.5C31.1 32.8 31.8 32.4 32.4 32.5C34.5 31.6 36.9 31.7 39.2 31.6C41.5 31.5 43.8 31.3 46.1 31.3C38.6 22.5 31.6 13 24.6 3.79999C17.6 12.8 10.6 22.3 3.09998 31.1Z" fill="#E5555D"/>
<path d="M49.2 32.4C44.4 20.7 34.2 10.6 26.5 0.699994C26 0.0999939 25.3 -0.100006 24.6 0.0999939C24 -0.100006 23.2 0.0999939 22.7 0.699994C15.1 10.6 4.79999 20.7 -1.5121e-05 32.4C-0.100015 32.7 -1.51247e-05 32.9 0.199985 33.1C0.199985 33.2 0.199985 33.2 0.199985 33.3C0.299985 33.8 0.899985 34.4 1.39998 34.5C3.99998 35 6.69998 35 9.39998 34.9C11.3 34.9 13.3 35 15.1 34.6C12.5 44.9 12.1 55.9 10.5 66.3C8.99998 76.2 7.39998 86.1 6.09998 96.1C6.09998 96.2 6.09998 96.2 6.09998 96.3C5.69998 97.6 6.29998 99.1 7.99998 99.1C18.7 98.8 29.5 98.8 40.2 98.4C41.3 98.4 42.6 97.4 42.4 96.2C39.7 75.8 37.7 54.6 33.3 34.5C35.3 35.1 37.5 34.9 39.6 34.9C42.3 34.9 44.9 35 47.6 34.5C48.1 34.4 48.7 33.8 48.8 33.3C48.8 33.2 48.8 33.2 48.8 33.1C49.2 32.9 49.3 32.6 49.2 32.4ZM39.3 31.4C37 31.5 34.6 31.4 32.5 32.3C31.9 32.2 31.2 32.6 31.1 33.3C29.4 53.2 35 74.2 37.8 93.9C28.8 94.2 19.7 94.2 10.7 94.6C13.8 75.1 20.1 52.8 17.6 33.2C17.6 33.1 17.5 32.9 17.5 32.8C17.4 32.6 17.3 32.5 17.2 32.4C17.2 32.4 17.1 32.4 17.1 32.3C17 32.3 17 32.2 16.9 32.2C14.8 31.2 12.4 31.3 10.1 31.2C7.79999 31.1 5.49998 30.9 3.19999 30.9C10.7 22.1 17.7 12.6 24.7 3.39999C31.7 12.6 38.8 22 46.2 30.9C43.9 31.1 41.6 31.2 39.3 31.4Z" fill="black"/>
</g>
<defs>
<clipPath id="clip0_1541_5561">
<rect width="49.3" height="99.1" fill="white"/>
</clipPath>
</defs>
</svg>
