<svg width="682" height="247" viewBox="0 0 682 247" fill="none" xmlns="http://www.w3.org/2000/svg">
<path d="M83.1674 201.966V74.1853H55.179C49.3884 74.1853 45.1418 72.4481 42.2465 68.9737C39.3512 65.4993 38 61.2528 38 56.4272C38 51.7947 39.5442 47.7412 42.6325 44.2668C45.7209 40.7924 49.7744 39.0552 55.179 39.0552H148.795C154.007 39.0552 158.253 40.7924 161.342 44.2668C164.43 47.7412 165.974 51.7947 165.974 56.4272C165.974 61.4458 164.623 65.4993 161.728 68.9737C158.832 72.4481 154.586 74.1853 148.795 74.1853H121.193V201.966C121.193 208.336 119.456 213.162 115.981 216.636C112.507 220.111 107.874 221.848 101.891 221.848C96.2929 221.848 91.6604 220.111 88.186 216.636C84.9046 212.969 83.1674 208.143 83.1674 201.966Z" fill="#311A8C"/>
<path d="M268.081 107.195V197.722C268.081 204.864 267.309 209.883 265.958 212.971C263.256 218.762 258.044 221.657 250.13 221.657C245.112 221.657 241.251 220.306 238.742 217.797C236.233 215.288 234.302 211.234 232.951 205.829C228.126 211.427 222.721 215.674 216.93 218.762C211.14 221.657 204.77 223.201 197.821 223.201C180.642 223.201 166.358 216.639 154.777 203.32C143.195 190.002 137.405 173.016 137.405 152.555C137.405 132.481 143.195 115.688 154.97 102.176C166.744 88.6645 181.028 81.9087 198.014 81.9087C205.349 81.9087 211.912 83.2598 217.895 85.9622C223.879 88.6645 228.898 92.911 232.951 98.7017C233.53 94.0691 235.46 90.4017 238.742 87.6994C242.023 84.804 245.884 83.4529 250.323 83.4529C258.044 83.4529 263.256 86.1552 265.765 91.5598C267.309 94.6482 268.081 99.8598 268.081 107.195ZM173.886 152.555C173.886 162.592 176.202 170.892 180.835 177.841C186.24 185.755 193.574 189.809 203.033 189.809C212.105 189.809 219.053 185.948 224.458 178.034C229.284 170.892 231.6 162.399 231.6 152.555C231.6 142.904 229.284 134.604 224.651 127.655C219.247 119.548 212.105 115.495 203.033 115.495C193.96 115.495 186.626 119.548 181.221 127.462C176.202 134.411 173.886 142.904 173.886 152.555Z" fill="#311A8C"/>
<path d="M286.48 201.388V44.4604C286.48 38.2837 288.218 33.4581 291.499 29.5977C294.973 25.9302 299.22 24 304.818 24C310.222 24 314.662 25.9302 318.136 29.5977C321.611 33.2651 323.155 38.2837 323.155 44.4604V94.4534C332.613 85.9604 344.194 81.7138 357.706 81.7138C376.429 81.7138 391.099 89.2417 401.908 104.298C411.752 118.002 416.578 134.602 416.578 153.904C416.578 172.049 411.173 187.876 400.364 201.581C388.783 216.058 374.306 223.2 356.548 223.2C349.599 223.2 343.036 221.848 336.859 218.953C330.683 216.058 326.05 212.004 322.769 206.407C321.418 211.425 319.294 215.286 316.399 217.795C313.504 220.304 309.45 221.655 304.432 221.655C299.027 221.655 294.587 219.725 291.113 216.058C288.025 212.39 286.48 207.372 286.48 201.388ZM322.962 151.395C322.962 161.625 325.085 170.118 329.525 177.067C334.736 185.367 342.071 189.614 351.336 189.614C360.408 189.614 367.357 185.56 372.762 177.646C377.587 170.504 379.904 162.204 379.904 152.36C379.904 142.516 377.587 134.409 372.955 127.46C367.55 119.353 360.408 115.3 351.336 115.3C342.264 115.3 335.315 118.774 330.297 125.916C325.471 133.251 322.962 141.744 322.962 151.395Z" fill="#311A8C"/>
<path d="M507.879 104.684C507.879 108.931 506.528 112.984 504.019 116.845C501.51 120.705 498.228 122.636 494.175 122.636C491.665 122.636 485.875 121.091 477.189 118.003C472.363 116.266 468.31 115.494 465.221 115.494C455.377 115.494 447.656 119.354 441.865 126.882C436.847 133.638 434.145 142.324 434.145 152.554C434.145 162.591 436.847 171.084 442.059 178.033C448.042 185.754 455.763 189.808 465.221 189.808C468.31 189.808 472.17 189.035 476.996 187.298C481.821 185.754 486.84 184.017 492.051 182.087C496.491 182.087 500.158 183.631 503.247 186.719C506.335 189.808 507.879 193.475 507.879 197.914C507.879 206.214 502.089 212.777 490.507 217.796C481.628 221.463 472.556 223.394 463.098 223.394C443.796 223.394 427.968 216.638 415.807 202.933C403.647 189.228 397.47 172.435 397.47 152.747C397.47 133.638 403.647 117.038 416 102.947C428.354 88.8565 443.989 81.9077 463.098 81.9077C473.521 81.9077 482.786 83.4519 490.893 86.5403C502.282 90.5937 507.879 96.7705 507.879 104.684Z" fill="url(#paint0_linear_1425_4538)"/>
<path d="M643.444 107.194V197.721C643.444 204.863 642.672 209.882 641.321 212.97C638.619 218.761 633.407 221.656 625.493 221.656C620.474 221.656 616.614 220.305 614.105 217.796C611.595 215.287 609.665 211.233 608.314 205.828C603.488 211.426 598.084 215.673 592.293 218.761C586.502 221.656 580.133 223.2 573.184 223.2C556.005 223.2 541.721 216.638 530.14 203.319C518.558 190.001 512.768 173.015 512.768 152.554C512.768 132.48 518.558 115.687 530.333 102.175C542.107 88.6635 556.391 81.9077 573.377 81.9077C580.712 81.9077 587.274 83.2589 593.258 85.9612C599.242 88.6635 604.26 92.91 608.314 98.7007C608.893 94.0682 610.823 90.4007 614.105 87.6984C617.386 84.8031 621.246 83.4519 625.686 83.4519C633.407 83.4519 638.619 86.1542 641.128 91.5589C642.672 94.6472 643.444 99.8588 643.444 107.194ZM549.249 152.554C549.249 162.591 551.565 170.891 556.198 177.84C561.602 185.754 568.937 189.808 578.395 189.808C587.467 189.808 594.416 185.947 599.821 178.033C604.646 170.891 606.963 162.398 606.963 152.554C606.963 142.903 604.646 134.603 600.014 127.654C594.609 119.547 587.467 115.494 578.395 115.494C569.323 115.494 561.988 119.547 556.584 127.461C551.565 134.41 549.249 142.903 549.249 152.554Z" fill="url(#paint1_linear_1425_4538)"/>
<path d="M408.538 115.3C408.538 115.3 414.071 131.9 414.071 154.033C414.071 176.166 408.538 190 408.538 190" stroke="#FB72CA" stroke-width="4" stroke-linecap="round" stroke-linejoin="round" stroke-dasharray="9 9"/>
<defs>
<linearGradient id="paint0_linear_1425_4538" x1="452.675" y1="81.9077" x2="452.675" y2="223.394" gradientUnits="userSpaceOnUse">
<stop stop-color="#DD3B9C"/>
<stop offset="0.901042" stop-color="#5105CF"/>
</linearGradient>
<linearGradient id="paint1_linear_1425_4538" x1="578.106" y1="81.9077" x2="578.106" y2="223.2" gradientUnits="userSpaceOnUse">
<stop stop-color="#DD3B9C"/>
<stop offset="0.901042" stop-color="#5105CF"/>
</linearGradient>
</defs>
</svg>
